<?xml version="1.0" encoding="UTF-8" standalone="no"?>
<!-- Created with Inkscape (http://www.inkscape.org/) -->

<svg
   xmlns:dc="http://purl.org/dc/elements/1.1/"
   xmlns:cc="http://creativecommons.org/ns#"
   xmlns:rdf="http://www.w3.org/1999/02/22-rdf-syntax-ns#"
   xmlns:svg="http://www.w3.org/2000/svg"
   xmlns="http://www.w3.org/2000/svg"
   xmlns:sodipodi="http://sodipodi.sourceforge.net/DTD/sodipodi-0.dtd"
   xmlns:inkscape="http://www.inkscape.org/namespaces/inkscape"
   width="3072"
   height="1024"
   viewBox="0 0 812.79998 270.93335"
   version="1.1"
   id="svg8"
   inkscape:version="0.92.3 (2405546, 2018-03-11)"
   sodipodi:docname="logo.svg"
   inkscape:export-filename="C:\Users\Mauro\Pictures\Nintersoft\2018\SmartClass\Logo\Logo_64.png"
   inkscape:export-xdpi="6"
   inkscape:export-ydpi="6">
  <defs
     id="defs2">
    <inkscape:path-effect
       fuse_tolerance="0"
       vertical_pattern="false"
       prop_units="false"
       tang_offset="0"
       normal_offset="0"
       spacing="0"
       scale_y_rel="false"
       prop_scale="1.021911"
       copytype="single_stretched"
       pattern="m 64.207249,53.924192 c 0,-2.76 2.24,-5 5,-5 2.76,0 5,2.24 5,5 0,2.76 -2.24,5 -5,5 -2.76,0 -5,-2.24 -5,-5 z"
       is_visible="true"
       id="path-effect3959"
       effect="skeletal" />
    <inkscape:path-effect
       only_selected="false"
       apply_with_weight="true"
       apply_no_weight="true"
       helper_size="0"
       steps="2"
       weight="33.333333"
       is_visible="true"
       id="path-effect3957"
       effect="bspline" />
    <inkscape:path-effect
       effect="skeletal"
       id="path-effect3909"
       is_visible="true"
       pattern="m 19.222211,4.98359 c 0,-2.76 2.239999,-5 4.999997,-5 2.759999,0 4.999998,2.24 4.999998,5 0,2.76 -2.239999,5 -4.999998,5 -2.759998,0 -4.999997,-2.24 -4.999997,-5 z"
       copytype="single_stretched"
       prop_scale="1.1864509"
       scale_y_rel="false"
       spacing="0"
       normal_offset="0"
       tang_offset="0"
       prop_units="false"
       vertical_pattern="false"
       fuse_tolerance="0" />
    <inkscape:path-effect
       effect="bspline"
       id="path-effect3907"
       is_visible="true"
       weight="33.333333"
       steps="2"
       helper_size="0"
       apply_no_weight="true"
       apply_with_weight="true"
       only_selected="false" />
    <inkscape:perspective
       sodipodi:type="inkscape:persp3d"
       inkscape:vp_x="0 : 74.807565 : 1"
       inkscape:vp_y="0 : 1231.1279 : 0"
       inkscape:vp_z="338.66665 : 74.807565 : 1"
       inkscape:persp3d-origin="169.33333 : 35.71925 : 1"
       id="perspective8" />
    <clipPath
       id="clipPath4344"
       clipPathUnits="userSpaceOnUse">
      <path
         inkscape:connector-curvature="0"
         id="path4342"
         d="M 0,0 H 9000 V 9000 H 0 Z" />
    </clipPath>
    <clipPath
       id="clipPath4350"
       clipPathUnits="userSpaceOnUse">
      <path
         inkscape:connector-curvature="0"
         id="path4348"
         d="M 8999.98,0 H -10.0195 V 9019.53 H 8999.98 V 0 M 3742.37,1780.91 c -1558.29,-76.98 -2723.43,-386.45 -2723.43,-756.52 0,-427.98 1558.52,-774.929 3481.06,-774.929 1922.53,0 3481.06,346.949 3481.06,774.929 0,375.21 -1197.87,688.14 -2788.77,759.6 -14.86,49.62 -37.03,117.47 -53.69,167.66 42.04,14.1 67.58,31.01 67.58,56.75 0,12 -0.68,18.62 -6.49,39.21 -8.63,30.65 -22.48,74.73 -36.47,117.99 -10.72,33.21 -18.63,57.23 -25.28,77.19 42.43,14.15 68.24,31.1 68.24,56.98 v 0 0 c 0,11.99 -0.68,18.61 -6.49,39.21 -12.81,45.48 -37.14,120.59 -56.32,178.63 -3.06,9.25 -5.98,18.07 -8.71,26.27 54.16,18.43 85.9,37.62 85.9,55 0,5.56 -0.79,89.67 -2.2,164.21 20.91,13.46 40.15,28.65 57.35,46.21 23.1,23.58 42.39,51.94 54.39,84.03 12.79,34.11 23.67,64 33.11,93.93 14.19,44.83 24.63,89.62 31.93,142.44 7.35,52.97 12.05,114.06 16.52,197.83 4.68,88.37 9.22,173.44 15.68,249.82 6.41,76.3 14.92,144.11 26.38,196.03 1.86,8.85 7.35,24.17 17.02,42.67 16.81,32.6 45.81,74.59 81.59,119.16 53.69,67.13 122.29,140.75 188.54,210.48 33.15,34.92 65.75,68.94 95.88,101.19 30.16,32.28 57.81,62.68 81.53,91.15 l 168.76,202.67 -20.76,-3.19 c 74.45,113.79 137.03,236.1 185.94,365.15 79.21,208.96 122.55,435.67 122.54,672.05 v 0 0 0 c 0.01,261.64 -53.09,511.41 -149.12,738.41 -144.06,340.55 -384.45,629.99 -687.15,834.51 -302.58,204.49 -668.03,324.03 -1060.47,324.03 -0.07,0 -0.13,0 -0.2,0 -0.03,0 -0.09,0 -0.12,0 -261.6,0 -511.32,-53.09 -738.29,-149.12 -340.55,-144.06 -630,-384.46 -834.51,-687.16 -204.53,-302.63 -324.07,-668.14 -324.03,-1060.67 -0.01,-236.29 43.3,-462.91 122.45,-671.81 50.85,-134.23 116.48,-261.15 194.87,-378.78 l -14.96,1.49 116.72,-140.17 c 12.88,-15.98 26.01,-31.75 39.38,-47.29 l 0.1,-0.12 c 36.1,-43.3 81.53,-91.46 130.64,-143.16 36.79,-38.69 75.52,-79.16 113.17,-119.82 56.44,-60.91 110.54,-122.53 151.02,-177.26 20.24,-27.29 37.01,-52.84 48.92,-74.63 11.99,-21.72 18.74,-39.81 20.81,-49.79 11.46,-51.91 19.97,-119.72 26.38,-196.02 6.46,-76.38 11,-161.45 15.69,-249.81 2.97,-55.87 6.06,-101.61 9.96,-141.62 2.92,-30 6.3,-56.82 10.48,-82 6.23,-37.75 14.35,-71.8 24.54,-105.44 10.19,-33.71 22.19,-66.79 36.56,-105.14 10.67,-28.51 27.11,-54.15 46.84,-75.99 17.3,-19.17 37.06,-35.63 58.59,-50.11 1.58,-1.05 3.16,-2.1 4.75,-3.13 -1.42,-74.79 -2.21,-159.65 -2.21,-165.23 0,-15.32 24.67,-31.93 67.64,-48.15 -19.72,-59.14 -51.88,-156.95 -67.32,-211.75 -5.8,-20.6 -6.48,-27.22 -6.48,-39.21 0,-25.46 24.97,-46.21 66.17,-63.15 -5.96,-17.88 -12.66,-38.32 -24.51,-75.04 -13.54,-41.95 -26.81,-84.27 -35.18,-113.97 -5.8,-20.59 -6.48,-27.21 -6.48,-39.21 0,-25.32 24.72,-45.99 65.54,-62.88 -16.75,-50.56 -38.31,-116.72 -52.58,-164.61" />
    </clipPath>
    <radialGradient
       id="radialGradient4358"
       spreadMethod="pad"
       gradientTransform="matrix(7870.04,0,0,-7870.04,4494.98,3267.07)"
       gradientUnits="userSpaceOnUse"
       r="1"
       cy="0"
       cx="0"
       fy="0"
       fx="0">
      <stop
         id="stop4352"
         offset="0"
         style="stop-opacity:1;stop-color:#ed8434" />
      <stop
         id="stop4354"
         offset="0.848866"
         style="stop-opacity:1;stop-color:#b01e47" />
      <stop
         id="stop4356"
         offset="1"
         style="stop-opacity:1;stop-color:#af1e46" />
    </radialGradient>
    <clipPath
       id="clipPath4368"
       clipPathUnits="userSpaceOnUse">
      <path
         inkscape:connector-curvature="0"
         id="path4366"
         d="m 4500,249.461 c -1922.54,0 -3481.06,346.949 -3481.06,774.929 0,370.07 1165.14,679.54 2723.43,756.52 -2.38,-7.99 -4.56,-15.47 -6.48,-22.29 -5.8,-20.59 -6.48,-27.21 -6.48,-39.21 0,-26.62 27.31,-48.1 71.95,-65.45 11.74,-12.89 85.08,-92.61 118.99,-108.77 123.82,-58.98 391.92,-80.4 542.66,-80.4 663.26,0 693.4,200.99 693.4,200.99 l -9.12,-0.07 c 36.84,13.5 58.89,29.79 58.89,53.7 0,12 -0.68,18.62 -6.49,39.21 -2.16,7.69 -4.66,16.22 -7.4,25.37 1590.9,-71.46 2788.77,-384.39 2788.77,-759.6 0,-427.98 -1558.53,-774.929 -3481.06,-774.929" />
    </clipPath>
    <clipPath
       id="clipPath4374"
       clipPathUnits="userSpaceOnUse">
      <path
         inkscape:connector-curvature="0"
         id="path4372"
         d="M 1363.2,552 H 5200.8 V 1788 H 1363.2 Z" />
    </clipPath>
    <clipPath
       id="clipPath4386"
       clipPathUnits="userSpaceOnUse">
      <path
         inkscape:connector-curvature="0"
         id="path4384"
         d="m 4500,249.461 c -1922.54,0 -3481.06,346.949 -3481.06,774.929 0,370.07 1165.14,679.54 2723.43,756.52 -2.38,-7.99 -4.56,-15.47 -6.48,-22.29 -5.8,-20.59 -6.48,-27.21 -6.48,-39.21 0,-26.62 27.31,-48.1 71.95,-65.45 11.74,-12.89 85.08,-92.61 118.99,-108.77 123.82,-58.98 391.92,-80.4 542.66,-80.4 663.26,0 693.4,200.99 693.4,200.99 l -9.12,-0.07 c 36.84,13.5 58.89,29.79 58.89,53.7 0,12 -0.68,18.62 -6.49,39.21 -2.16,7.69 -4.66,16.22 -7.4,25.37 1590.9,-71.46 2788.77,-384.39 2788.77,-759.6 0,-427.98 -1558.53,-774.929 -3481.06,-774.929" />
    </clipPath>
    <clipPath
       id="clipPath4392"
       clipPathUnits="userSpaceOnUse">
      <path
         inkscape:connector-curvature="0"
         id="path4390"
         d="m 5193.6,244.801 h 2095.2 v 1543.2 H 5193.6 Z" />
    </clipPath>
    <clipPath
       id="clipPath4404"
       clipPathUnits="userSpaceOnUse">
      <path
         inkscape:connector-curvature="0"
         id="path4402"
         d="m 4500,249.461 c -1922.54,0 -3481.06,346.949 -3481.06,774.929 0,370.07 1165.14,679.54 2723.43,756.52 -2.38,-7.99 -4.56,-15.47 -6.48,-22.29 -5.8,-20.59 -6.48,-27.21 -6.48,-39.21 0,-26.62 27.31,-48.1 71.95,-65.45 11.74,-12.89 85.08,-92.61 118.99,-108.77 123.82,-58.98 391.92,-80.4 542.66,-80.4 663.26,0 693.4,200.99 693.4,200.99 l -9.12,-0.07 c 36.84,13.5 58.89,29.79 58.89,53.7 0,12 -0.68,18.62 -6.49,39.21 -2.16,7.69 -4.66,16.22 -7.4,25.37 1590.9,-71.46 2788.77,-384.39 2788.77,-759.6 0,-427.98 -1558.53,-774.929 -3481.06,-774.929" />
    </clipPath>
    <clipPath
       id="clipPath4410"
       clipPathUnits="userSpaceOnUse">
      <path
         inkscape:connector-curvature="0"
         id="path4408"
         d="m 7281.6,552 h 355.199 V 1788 H 7281.6 Z" />
    </clipPath>
    <clipPath
       id="clipPath4422"
       clipPathUnits="userSpaceOnUse">
      <path
         inkscape:connector-curvature="0"
         id="path4420"
         d="m 4500,249.461 c -1922.54,0 -3481.06,346.949 -3481.06,774.929 0,370.07 1165.14,679.54 2723.43,756.52 -2.38,-7.99 -4.56,-15.47 -6.48,-22.29 -5.8,-20.59 -6.48,-27.21 -6.48,-39.21 0,-26.62 27.31,-48.1 71.95,-65.45 11.74,-12.89 85.08,-92.61 118.99,-108.77 123.82,-58.98 391.92,-80.4 542.66,-80.4 663.26,0 693.4,200.99 693.4,200.99 l -9.12,-0.07 c 36.84,13.5 58.89,29.79 58.89,53.7 0,12 -0.68,18.62 -6.49,39.21 -2.16,7.69 -4.66,16.22 -7.4,25.37 1590.9,-71.46 2788.77,-384.39 2788.77,-759.6 0,-427.98 -1558.53,-774.929 -3481.06,-774.929" />
    </clipPath>
    <clipPath
       id="clipPath4428"
       clipPathUnits="userSpaceOnUse">
      <path
         inkscape:connector-curvature="0"
         id="path4426"
         d="m 1015.2,552 h 355.199 v 928.801 H 1015.2 Z" />
    </clipPath>
    <clipPath
       id="clipPath4440"
       clipPathUnits="userSpaceOnUse">
      <path
         inkscape:connector-curvature="0"
         id="path4438"
         d="m 4500,249.461 c -1922.54,0 -3481.06,346.949 -3481.06,774.929 0,370.07 1165.14,679.54 2723.43,756.52 -2.38,-7.99 -4.56,-15.47 -6.48,-22.29 -5.8,-20.59 -6.48,-27.21 -6.48,-39.21 0,-26.62 27.31,-48.1 71.95,-65.45 11.74,-12.89 85.08,-92.61 118.99,-108.77 123.82,-58.98 391.92,-80.4 542.66,-80.4 663.26,0 693.4,200.99 693.4,200.99 l -9.12,-0.07 c 36.84,13.5 58.89,29.79 58.89,53.7 0,12 -0.68,18.62 -6.49,39.21 -2.16,7.69 -4.66,16.22 -7.4,25.37 1590.9,-71.46 2788.77,-384.39 2788.77,-759.6 0,-427.98 -1558.53,-774.929 -3481.06,-774.929" />
    </clipPath>
    <clipPath
       id="clipPath4446"
       clipPathUnits="userSpaceOnUse">
      <path
         inkscape:connector-curvature="0"
         id="path4444"
         d="m 7629.6,552 h 355.199 v 928.801 H 7629.6 Z" />
    </clipPath>
    <clipPath
       id="clipPath4458"
       clipPathUnits="userSpaceOnUse">
      <path
         inkscape:connector-curvature="0"
         id="path4456"
         d="m 4500,249.461 c -1922.54,0 -3481.06,346.949 -3481.06,774.929 0,370.07 1165.14,679.54 2723.43,756.52 -2.38,-7.99 -4.56,-15.47 -6.48,-22.29 -5.8,-20.59 -6.48,-27.21 -6.48,-39.21 0,-26.62 27.31,-48.1 71.95,-65.45 11.74,-12.89 85.08,-92.61 118.99,-108.77 123.82,-58.98 391.92,-80.4 542.66,-80.4 663.26,0 693.4,200.99 693.4,200.99 l -9.12,-0.07 c 36.84,13.5 58.89,29.79 58.89,53.7 0,12 -0.68,18.62 -6.49,39.21 -2.16,7.69 -4.66,16.22 -7.4,25.37 1590.9,-71.46 2788.77,-384.39 2788.77,-759.6 0,-427.98 -1558.53,-774.929 -3481.06,-774.929" />
    </clipPath>
    <clipPath
       id="clipPath4464"
       clipPathUnits="userSpaceOnUse">
      <path
         inkscape:connector-curvature="0"
         id="path4462"
         d="M 1711.2,244.801 H 5200.8 V 559.199 H 1711.2 Z" />
    </clipPath>
    <clipPath
       id="clipPath4546"
       clipPathUnits="userSpaceOnUse">
      <path
         inkscape:connector-curvature="0"
         id="path4544"
         d="m 3967.35,5203.93 c -0.63,0 -1.26,0 -1.89,0.01 -90.61,1.02 -163.27,75.3 -162.23,165.93 1,89.99 74.29,162.25 164.06,162.25 0.63,0 1.25,-0.01 1.88,-0.01 90.62,-1.02 163.23,-75.32 162.21,-165.93 -1.02,-90 -74.26,-162.25 -164.03,-162.25 m -0.07,245.25 c -44.39,0 -80.65,-35.74 -81.15,-80.25 -0.49,-44.82 35.43,-81.57 80.26,-82.08 0.31,0 0.62,0 0.93,0 44.41,-0.01 80.64,35.74 81.16,80.25 0.49,44.83 -35.43,81.58 -80.25,82.08 -0.31,0 -0.63,0 -0.95,0 m 340.73,-217.63 c 6.89,17.16 12.51,34.97 16.74,53.32 l 7.61,120.42 c -2.47,24.56 -7.35,48.42 -14.45,71.32 l 262.14,131.66 c 23.33,-59.44 38.27,-123.06 43.33,-189.41 -1.42,-0.26 -2.84,-0.58 -4.26,-0.97 -26.49,-7.25 -42.08,-34.58 -34.81,-61.07 l 6.21,-22.71 c -45.49,-21.15 -92.02,-40.4 -139.19,-57.55 l -7.68,9.88 c -9.8,12.6 -24.47,19.2 -39.28,19.2 -10.66,0 -21.4,-3.42 -30.47,-10.47 -15.7,-12.2 -22.08,-31.95 -18,-50.14 -15.9,-4.74 -31.88,-9.23 -47.89,-13.48 m -742.3,2.27 c -72.7,23.16 -142.91,54.11 -209.72,93.56 -15.85,9.36 -31.19,19.11 -46.01,29.22 l 7.08,113.15 c 11.82,76.11 36.64,147.8 72.09,212.85 l 243.78,-163.26 c -9.83,-21.68 -17.63,-44.48 -23.08,-68.18 l -7.62,-120.42 c 2.49,-24.55 7.36,-48.41 14.45,-71.32 l -50.97,-25.6 m 1157.53,168.99 c -0.68,14.32 -1.78,28.54 -3.21,42.66 l 64.76,11.94 c 32.8,6.03 54.46,37.51 48.41,70.26 -5.39,29.08 -30.73,49.41 -59.27,49.41 -3.63,0 -7.31,-0.33 -11.01,-1.01 l -64.57,-11.92 c -1.81,6.8 -3.7,13.56 -5.69,20.29 2.05,-0.24 4.12,-0.36 6.2,-0.36 7.13,0 14.39,1.41 21.36,4.39 l 92.99,39.78 c 23.03,-40.64 51.66,-77.85 85.02,-110.47 -55.36,-41.52 -113.92,-79.98 -174.99,-114.97 m -1505.04,73.23 -48.25,3.06 c -410.56,461.33 -125.61,1329.17 816.94,1650.5 150.27,40.73 289.71,58.8 417.58,58.8 552.59,0 890.5,-337.03 966.19,-638.44 17.48,-69.62 24.72,-139.09 22.81,-207.7 -12.69,4.03 -25.63,7.57 -38.79,10.59 l 11.76,100.45 c 3.51,29.84 -17.89,56.86 -47.71,60.36 -2.15,0.25 -4.29,0.38 -6.4,0.38 -27.18,0 -50.69,-20.4 -53.95,-48.07 l -11.75,-100.46 c -1.26,0.01 -2.52,0.02 -3.77,0.02 -49.23,0 -97.12,-7.36 -142.5,-21.11 l -39.73,92.93 c -8.83,20.65 -28.93,33.03 -50.06,33.03 -7.13,0 -14.38,-1.41 -21.35,-4.39 -27.63,-11.81 -40.43,-43.79 -28.61,-71.4 l 39.76,-93.03 c -44.37,-25.1 -84.58,-56.91 -119.27,-94.24 l -81.31,60.19 c -9.74,7.2 -21.09,10.68 -32.33,10.68 -16.65,0 -33.08,-7.62 -43.76,-22.02 -17.88,-24.14 -12.79,-58.21 11.34,-76.09 l 81.26,-60.14 c -24.47,-42.02 -43.01,-88.14 -54.33,-137.41 l -100.47,11.77 c -2.15,0.25 -4.28,0.37 -6.4,0.37 -20.83,0 -39.48,-11.94 -48.55,-29.97 -7.22,2.91 -14.92,4.38 -22.63,4.38 -14.12,0 -28.3,-4.92 -39.74,-14.97 l -49.61,-43.49 c -15.93,15.49 -32.53,30.25 -49.75,44.29 l 37.4,54.32 c 18.91,27.46 11.97,65.02 -15.46,83.92 -10.45,7.2 -22.36,10.65 -34.15,10.65 -19.18,0 -38.04,-9.13 -49.76,-26.12 l -37.36,-54.23 c -23.94,13.86 -48.7,26.41 -74.23,37.63 l 21.53,62.17 c 10.89,31.5 -5.78,65.86 -37.28,76.76 -6.53,2.27 -13.19,3.34 -19.74,3.34 -24.99,0 -48.38,-15.64 -56.98,-40.6 l -21.54,-62.16 c -24.17,6.26 -48.72,11.53 -73.78,15.38 l 4.87,65.46 c 2.48,33.24 -22.46,62.18 -55.69,64.66 -1.52,0.11 -3.04,0.16 -4.54,0.16 -31.29,0 -57.75,-24.14 -60.11,-55.85 l -4.89,-65.62 c -30.48,-0.16 -60.51,-2.19 -90.05,-5.85 l -13.36,64.4 c -5.92,28.48 -31.01,48.08 -59.01,48.08 -4.07,0 -8.21,-0.41 -12.35,-1.27 -32.58,-6.77 -53.56,-38.7 -46.79,-71.33 l 13.36,-64.39 c -21.32,-6.21 -42.16,-13.45 -62.67,-21.47 l -28.75,59.27 c -10.44,21.49 -31.94,34.01 -54.32,34.01 -8.84,0 -17.82,-1.95 -26.3,-6.07 -29.97,-14.55 -42.51,-50.65 -27.91,-80.62 l 28.74,-59.29 c -24.08,-14.21 -47.31,-29.69 -69.59,-46.39 l -43.62,49.52 c -11.92,13.53 -28.57,20.45 -45.3,20.45 -14.16,0 -28.38,-4.96 -39.85,-15.07 -24.98,-22.02 -27.41,-60.15 -5.4,-85.14 l 43.61,-49.5 c -17.35,-17.93 -33.96,-36.6 -49.51,-56.17 l -54.62,36.58 c -10.31,6.9 -21.98,10.2 -33.52,10.2 -19.46,0 -38.55,-9.38 -50.19,-26.76 -18.51,-27.68 -11.12,-65.17 16.57,-83.7 l 54.4,-36.44 c -11.75,-20.94 -22.43,-42.53 -32.18,-64.66 l -61.88,21.55 c -6.57,2.29 -13.26,3.37 -19.84,3.37 -24.98,0 -48.34,-15.61 -57.02,-40.51 -10.93,-31.46 5.69,-65.84 37.17,-76.82 l 62.13,-21.63 c -7.05,-27.16 -12.82,-54.83 -16.86,-83.09 M 4225,6323.99 c 30.18,-46.02 73.18,-83.97 126.07,-107.76 l -22.88,-70.37 c -5.52,-17.11 3.8,-35.47 20.94,-41.03 3.34,-1.09 6.73,-1.6 10.06,-1.6 13.73,0 26.49,8.74 30.96,22.5 l 22.85,70.36 c 20.12,-4.19 40.27,-6.21 60.19,-6.21 36.32,0 71.88,6.73 105.12,19.33 l 33.62,-66.01 c 5.79,-11.29 17.21,-17.8 29.07,-17.8 4.97,0 10.02,1.15 14.77,3.56 16.05,8.17 22.38,27.77 14.2,43.81 l -33.61,65.99 c 46.02,30.18 83.95,73.17 107.76,126.07 l 70.36,-22.87 c 3.34,-1.09 6.73,-1.6 10.07,-1.6 13.73,0 26.51,8.75 30.94,22.5 5.6,17.1 -3.78,35.48 -20.88,41.02 l -70.35,22.87 c 11.8,56.78 6.4,113.87 -13.1,165.33 l 65.98,33.64 c 16.03,8.15 22.4,27.77 14.22,43.8 -5.74,11.27 -17.15,17.77 -29,17.77 -4.97,0 -10.02,-1.15 -14.75,-3.56 l -66.01,-33.62 c -30.18,46.02 -73.2,83.98 -126.09,107.76 l 22.87,70.38 c 5.57,17.11 -3.79,35.47 -20.89,41.02 -3.34,1.09 -6.74,1.61 -10.07,1.61 -13.73,0 -26.5,-8.76 -30.96,-22.52 L 4533.6,6778 c -20.11,4.19 -40.26,6.21 -60.19,6.21 -36.34,0 -71.92,-6.73 -105.16,-19.32 l -33.61,66.01 c -5.78,11.29 -17.18,17.79 -29.02,17.79 -4.98,0 -10.03,-1.15 -14.78,-3.57 -16.07,-8.15 -22.42,-27.75 -14.21,-43.78 l 33.58,-65.99 c -46.01,-30.18 -83.95,-73.2 -107.77,-126.07 l -70.36,22.88 c -3.34,1.08 -6.72,1.59 -10.05,1.59 -13.73,0 -26.5,-8.74 -30.95,-22.51 -5.6,-17.09 3.76,-35.48 20.89,-41.02 l 70.36,-22.87 c -11.82,-56.78 -6.37,-113.87 13.09,-165.34 l -65.97,-33.63 c -16.04,-8.16 -22.41,-27.78 -14.23,-43.79 5.74,-11.29 17.17,-17.78 29.02,-17.78 4.99,0 10.04,1.14 14.79,3.56 l 65.97,33.62 m 38.75,-739.55 c -50.27,68.74 -123.94,119.31 -209.41,140.09 l 21.78,292.66 c 189.87,-31.59 351.8,-144.42 449.67,-301.14 l -262.04,-131.61 m -563.64,35.14 -243.67,163.18 c 118.55,145.83 298.1,239.67 499.31,243.13 L 3934,5733.56 c -91.82,-8.26 -174.03,-50.44 -233.89,-113.98 m 1240.18,2.39 c -65.44,79.58 -99.64,184.64 -86.71,295.06 3.84,32.75 11.61,64.07 22.77,93.58 l 105.51,-77.76 c -2.31,-9.85 -4.08,-19.95 -5.29,-30.25 -7.19,-61.43 6.94,-120.46 36.54,-169.66 l -72.82,-110.97 m -181.09,101.49 c 2.8,12.98 1.36,26.97 -5.07,39.76 -10.6,21.09 -31.88,33.26 -53.97,33.26 -9.11,0 -18.35,-2.06 -27.04,-6.43 l -58.67,-29.46 c -12.42,20.47 -25.99,40.19 -40.27,59.34 l 49.58,43.46 c 7.83,6.88 13.46,15.33 16.82,24.48 2.67,-0.74 5.43,-1.29 8.27,-1.62 l 100.46,-11.77 c -0.39,-50.56 6.99,-99.72 21.07,-146.24 l -11.18,-4.78 m 337.66,373.09 -104.18,76.78 c 68.61,56.96 156.39,90.6 250.31,90.6 15.26,0 30.67,-0.89 46.19,-2.71 33.04,-3.87 64.65,-11.74 94.38,-23.07 -0.73,-4.5 -1.53,-9.15 -2.33,-13.64 l -64.49,-94.59 c -13.56,3.83 -27.58,6.63 -42.01,8.32 -10.62,1.24 -21.17,1.85 -31.61,1.85 -53.34,0 -103.8,-15.86 -146.26,-43.54 m -685.06,163.01 c -4.44,0 -8.97,0.7 -13.42,2.18 -22.32,7.43 -34.38,31.52 -26.94,53.81 5.91,17.86 22.52,29.14 40.34,29.14 4.45,0 8.98,-0.7 13.43,-2.18 22.32,-7.41 34.37,-31.5 26.97,-53.81 -5.94,-17.85 -22.55,-29.14 -40.38,-29.14 m 148.81,10.69 c -15.6,0 -30.62,8.6 -38.08,23.5 -10.53,21.03 -2.04,46.6 18.96,57.13 6.12,3.06 12.62,4.51 19.02,4.51 15.61,0 30.63,-8.61 38.1,-23.52 10.53,-21.01 2.02,-46.58 -18.98,-57.11 -6.11,-3.06 -12.61,-4.51 -19.02,-4.51 m -261.53,86.96 c -15.61,0 -30.63,8.6 -38.07,23.5 -10.54,21.01 -2.04,46.58 18.96,57.11 6.12,3.06 12.63,4.52 19.04,4.52 15.6,0 30.62,-8.61 38.06,-23.5 10.55,-21.03 2.07,-46.59 -18.95,-57.12 -6.12,-3.06 -12.63,-4.51 -19.04,-4.51 m 359.13,25.79 c -4.46,0 -8.99,0.71 -13.45,2.19 -22.28,7.41 -34.35,31.5 -26.93,53.81 5.91,17.85 22.52,29.14 40.36,29.14 4.45,0 8.99,-0.71 13.45,-2.19 22.3,-7.42 34.38,-31.51 26.95,-53.81 -5.94,-17.85 -22.55,-29.14 -40.38,-29.14 m -184.89,12.67 c -9.36,0 -18.86,1.45 -28.24,4.49 -47.99,15.59 -74.23,67.12 -58.66,115.12 12.55,38.6 48.36,63.15 86.87,63.15 9.36,0 18.87,-1.44 28.25,-4.49 48,-15.61 74.24,-67.13 58.64,-115.11 -12.54,-38.62 -48.36,-63.16 -86.86,-63.16 m -0.08,136.48 c -19,0 -36.65,-12.11 -42.82,-31.17 -7.71,-23.68 5.25,-49.12 28.93,-56.82 4.63,-1.51 9.32,-2.22 13.94,-2.22 19,0 36.68,12.12 42.89,31.17 7.69,23.7 -5.29,49.15 -28.98,56.82 -4.63,1.51 -9.33,2.22 -13.96,2.22 m -184.88,-26.17 c -4.45,0 -8.97,0.7 -13.43,2.18 -22.31,7.42 -34.38,31.52 -26.96,53.81 5.95,17.85 22.56,29.14 40.39,29.14 4.45,0 8.98,-0.71 13.44,-2.19 22.27,-7.41 34.36,-31.5 26.93,-53.8 -5.93,-17.85 -22.54,-29.14 -40.37,-29.14 m 359.19,25.8 c -15.59,0 -30.61,8.6 -38.08,23.5 -10.53,21.02 -2.03,46.57 19,57.1 6.11,3.07 12.62,4.52 19.03,4.52 15.6,0 30.62,-8.61 38.07,-23.5 10.52,-21.02 2.01,-46.57 -19,-57.1 -6.11,-3.07 -12.62,-4.52 -19.02,-4.52 m -261.5,86.95 c -15.61,0 -30.64,8.61 -38.1,23.51 -10.53,21.01 -2.02,46.58 18.98,57.1 6.13,3.07 12.63,4.52 19.04,4.52 15.59,0 30.6,-8.61 38.06,-23.51 10.53,-21 2.04,-46.58 -18.96,-57.11 -6.11,-3.06 -12.62,-4.51 -19.02,-4.51 m 148.72,10.68 c -4.45,0 -8.98,0.7 -13.43,2.18 -22.3,7.42 -34.35,31.52 -26.95,53.82 5.93,17.84 22.54,29.14 40.36,29.14 4.45,0 8.98,-0.7 13.44,-2.19 22.32,-7.41 34.37,-31.5 26.95,-53.8 -5.92,-17.86 -22.54,-29.15 -40.37,-29.15" />
    </clipPath>
    <linearGradient
       id="linearGradient4554"
       spreadMethod="pad"
       gradientTransform="matrix(1033.21,-3357.92,-3357.92,-1033.21,3810.74,7399.89)"
       gradientUnits="userSpaceOnUse"
       y2="0"
       x2="1"
       y1="0"
       x1="0">
      <stop
         id="stop4548"
         offset="0"
         style="stop-opacity:1;stop-color:#f1f02c" />
      <stop
         id="stop4550"
         offset="0.542857"
         style="stop-opacity:1;stop-color:#fad715" />
      <stop
         id="stop4552"
         offset="1"
         style="stop-opacity:1;stop-color:#fad715" />
    </linearGradient>
    <clipPath
       id="clipPath4564"
       clipPathUnits="userSpaceOnUse">
      <path
         inkscape:connector-curvature="0"
         id="path4562"
         d="m 4473.29,6441.94 c -4.62,0 -9.31,0.71 -13.94,2.22 -23.68,7.7 -36.64,33.14 -28.93,56.82 6.17,19.06 23.82,31.17 42.82,31.17 4.63,0 9.33,-0.71 13.96,-2.22 23.69,-7.67 36.67,-33.12 28.98,-56.82 -6.21,-19.05 -23.89,-31.17 -42.89,-31.17" />
    </clipPath>
    <linearGradient
       id="linearGradient4572"
       spreadMethod="pad"
       gradientTransform="matrix(1033.21,-3357.92,-3357.92,-1033.21,3810.74,7399.89)"
       gradientUnits="userSpaceOnUse"
       y2="0"
       x2="1"
       y1="0"
       x1="0">
      <stop
         id="stop4566"
         offset="0"
         style="stop-opacity:1;stop-color:#94d225" />
      <stop
         id="stop4568"
         offset="0.542857"
         style="stop-opacity:1;stop-color:#4c9033" />
      <stop
         id="stop4570"
         offset="1"
         style="stop-opacity:1;stop-color:#4c9033" />
    </linearGradient>
    <clipPath
       id="clipPath4582"
       clipPathUnits="userSpaceOnUse">
      <path
         inkscape:connector-curvature="0"
         id="path4580"
         d="m 4359.19,6103.23 c -3.33,0 -6.72,0.51 -10.06,1.6 -17.14,5.56 -26.46,23.92 -20.94,41.03 l 22.88,70.37 c -52.89,23.79 -95.89,61.74 -126.07,107.76 l -65.97,-33.62 c -4.75,-2.42 -9.8,-3.56 -14.79,-3.56 -11.85,0 -23.28,6.49 -29.02,17.78 -8.18,16.01 -1.81,35.63 14.23,43.79 l 65.97,33.63 c -19.46,51.47 -24.91,108.56 -13.09,165.34 l -70.36,22.87 c -17.13,5.54 -26.49,23.93 -20.89,41.02 4.45,13.77 17.22,22.51 30.95,22.51 3.33,0 6.71,-0.51 10.05,-1.59 l 70.36,-22.88 c 23.82,52.87 61.76,95.89 107.77,126.07 l -33.58,65.99 c -8.21,16.03 -1.86,35.63 14.21,43.78 4.75,2.42 9.8,3.57 14.78,3.57 11.84,0 23.24,-6.5 29.02,-17.79 l 33.61,-66.01 c 33.24,12.59 68.82,19.32 105.16,19.32 19.93,0 40.08,-2.02 60.19,-6.21 l 22.86,70.36 c 4.46,13.76 17.23,22.52 30.96,22.52 3.33,0 6.73,-0.52 10.07,-1.61 17.1,-5.55 26.46,-23.91 20.89,-41.02 l -22.87,-70.38 c 52.89,-23.78 95.91,-61.74 126.09,-107.76 l 66.01,33.62 c 4.73,2.41 9.78,3.56 14.75,3.56 11.85,0 23.26,-6.5 29,-17.77 8.18,-16.03 1.81,-35.65 -14.22,-43.8 l -65.98,-33.64 c 19.5,-51.46 24.9,-108.55 13.1,-165.33 l 70.35,-22.87 c 17.1,-5.54 26.48,-23.92 20.88,-41.02 -4.43,-13.75 -17.21,-22.5 -30.94,-22.5 -3.34,0 -6.73,0.51 -10.07,1.6 l -70.36,22.87 c -23.81,-52.9 -61.74,-95.89 -107.76,-126.07 l 33.61,-65.99 c 8.18,-16.04 1.85,-35.64 -14.2,-43.81 -4.75,-2.41 -9.8,-3.56 -14.77,-3.56 -11.86,0 -23.28,6.51 -29.07,17.8 l -33.62,66.01 c -33.24,-12.6 -68.8,-19.33 -105.12,-19.33 -19.92,0 -40.07,2.02 -60.19,6.21 l -22.85,-70.36 c -4.47,-13.76 -17.23,-22.5 -30.96,-22.5 m 52.59,241.46 c -17.82,0 -34.43,-11.28 -40.34,-29.14 -7.44,-22.29 4.62,-46.38 26.94,-53.81 4.45,-1.48 8.98,-2.18 13.42,-2.18 17.83,0 34.44,11.29 40.38,29.14 7.4,22.31 -4.65,46.4 -26.97,53.81 -4.45,1.48 -8.98,2.18 -13.43,2.18 m 148.73,10.7 c -6.4,0 -12.9,-1.45 -19.02,-4.51 -21,-10.53 -29.49,-36.1 -18.96,-57.13 7.46,-14.9 22.48,-23.5 38.08,-23.5 6.41,0 12.91,1.45 19.02,4.51 21,10.53 29.51,36.1 18.98,57.11 -7.47,14.91 -22.49,23.52 -38.1,23.52 m -261.5,86.95 c -6.41,0 -12.92,-1.46 -19.04,-4.52 -21,-10.53 -29.5,-36.1 -18.96,-57.11 7.44,-14.9 22.46,-23.5 38.07,-23.5 6.41,0 12.92,1.45 19.04,4.51 21.02,10.53 29.5,36.09 18.95,57.12 -7.44,14.89 -22.46,23.5 -38.06,23.5 m 359.18,25.8 c -17.84,0 -34.45,-11.29 -40.36,-29.14 -7.42,-22.31 4.65,-46.4 26.93,-53.81 4.46,-1.48 8.99,-2.19 13.45,-2.19 17.83,0 34.44,11.29 40.38,29.14 7.43,22.3 -4.65,46.39 -26.95,53.81 -4.46,1.48 -9,2.19 -13.45,2.19 m -184.9,110.29 c -38.51,0 -74.32,-24.55 -86.87,-63.15 -15.57,-48 10.67,-99.53 58.66,-115.12 9.38,-3.04 18.88,-4.49 28.24,-4.49 38.5,0 74.32,24.54 86.86,63.16 15.6,47.98 -10.64,99.5 -58.64,115.11 -9.38,3.05 -18.89,4.49 -28.25,4.49 m -184.93,12.68 c -17.83,0 -34.44,-11.29 -40.39,-29.14 -7.42,-22.29 4.65,-46.39 26.96,-53.81 4.46,-1.48 8.98,-2.18 13.43,-2.18 17.83,0 34.44,11.29 40.37,29.14 7.43,22.3 -4.66,46.39 -26.93,53.8 -4.46,1.48 -8.99,2.19 -13.44,2.19 m 359.14,25.79 c -6.41,0 -12.92,-1.45 -19.03,-4.52 -21.03,-10.53 -29.53,-36.08 -19,-57.1 7.47,-14.9 22.49,-23.5 38.08,-23.5 6.4,0 12.91,1.45 19.02,4.52 21.01,10.53 29.52,36.08 19,57.1 -7.45,14.89 -22.47,23.5 -38.07,23.5 m -261.53,86.96 c -6.41,0 -12.91,-1.45 -19.04,-4.52 -21,-10.52 -29.51,-36.09 -18.98,-57.1 7.46,-14.9 22.49,-23.51 38.1,-23.51 6.4,0 12.91,1.45 19.02,4.51 21,10.53 29.49,36.11 18.96,57.11 -7.46,14.9 -22.47,23.51 -38.06,23.51 m 148.78,10.69 c -17.82,0 -34.43,-11.3 -40.36,-29.14 -7.4,-22.3 4.65,-46.4 26.95,-53.82 4.45,-1.48 8.98,-2.18 13.43,-2.18 17.83,0 34.45,11.29 40.37,29.15 7.42,22.3 -4.63,46.39 -26.95,53.8 -4.46,1.49 -8.99,2.19 -13.44,2.19" />
    </clipPath>
    <clipPath
       id="clipPath4600"
       clipPathUnits="userSpaceOnUse">
      <path
         inkscape:connector-curvature="0"
         id="path4598"
         d="m 5013.11,5732.94 c -29.6,49.2 -43.73,108.23 -36.54,169.66 1.21,10.3 2.98,20.4 5.29,30.25 l 47.28,-34.84 118.66,161 -50.94,37.54 c 42.46,27.68 92.92,43.54 146.26,43.54 10.44,0 20.99,-0.61 31.61,-1.85 14.43,-1.69 28.45,-4.49 42.01,-8.32 l -37.56,-55.08 47.9,-32.65 c -11.8,-28.39 -25,-56.32 -39.6,-83.95 -9.74,4.93 -20.46,8.29 -31.91,9.72 -4.11,0.51 -8.19,0.76 -12.23,0.76 -48.38,0 -90.34,-36.03 -96.51,-85.29 -4.35,-34.76 10.19,-67.52 35.6,-87.99 -11.55,-15.05 -23.47,-29.89 -35.81,-44.57 l -85.09,55.84 -48.42,-73.77" />
    </clipPath>
    <linearGradient
       id="linearGradient4608"
       spreadMethod="pad"
       gradientTransform="matrix(1033.21,-3357.92,-3357.92,-1033.21,3810.74,7399.89)"
       gradientUnits="userSpaceOnUse"
       y2="0"
       x2="1"
       y1="0"
       x1="0">
      <stop
         id="stop4602"
         offset="0"
         style="stop-opacity:1;stop-color:#f46962" />
      <stop
         id="stop4604"
         offset="0.542857"
         style="stop-opacity:1;stop-color:#ef353a" />
      <stop
         id="stop4606"
         offset="1"
         style="stop-opacity:1;stop-color:#ef353a" />
    </linearGradient>
    <clipPath
       id="clipPath4618"
       clipPathUnits="userSpaceOnUse">
      <path
         inkscape:connector-curvature="0"
         id="path4616"
         d="m 4898.23,5517.78 c -33.36,32.62 -61.99,69.83 -85.02,110.47 l -92.99,-39.78 c -6.97,-2.98 -14.23,-4.39 -21.36,-4.39 -2.08,0 -4.15,0.12 -6.2,0.36 -6.87,23.29 -14.79,46.14 -23.84,68.42 l 58.45,29.36 c 16.98,8.54 28.2,24 31.93,41.24 l 11.18,4.78 c -14.08,46.52 -21.46,95.68 -21.07,146.24 l -100.46,11.77 c -2.84,0.33 -5.6,0.88 -8.27,1.62 7.39,20.07 3.85,43.45 -11.27,60.67 -6.44,7.34 -14.27,12.75 -22.76,16.16 9.07,18.03 27.72,29.97 48.55,29.97 2.12,0 4.25,-0.12 6.4,-0.37 l 100.47,-11.77 c 11.32,49.27 29.86,95.39 54.33,137.41 l -81.26,60.14 c -24.13,17.88 -29.22,51.95 -11.34,76.09 10.68,14.4 27.11,22.02 43.76,22.02 11.24,0 22.59,-3.48 32.33,-10.68 l 81.31,-60.19 c 34.69,37.33 74.9,69.14 119.27,94.24 l -39.76,93.03 c -11.82,27.61 0.98,59.59 28.61,71.4 6.97,2.98 14.22,4.39 21.35,4.39 21.13,0 41.23,-12.38 50.06,-33.03 l 39.73,-92.93 c 45.38,13.75 93.27,21.11 142.5,21.11 1.25,0 2.51,-0.01 3.77,-0.02 l 11.75,100.46 c 3.26,27.67 26.77,48.07 53.95,48.07 2.11,0 4.25,-0.13 6.4,-0.38 29.82,-3.5 51.22,-30.52 47.71,-60.36 l -11.76,-100.45 c 13.16,-3.02 26.1,-6.56 38.79,-10.59 -0.98,-34.98 -4.32,-69.65 -9.91,-104.11 -29.73,11.33 -61.34,19.2 -94.38,23.07 -15.52,1.82 -30.93,2.71 -46.19,2.71 -93.92,0 -181.7,-33.64 -250.31,-90.6 l -34.87,25.69 -118.66,-161 37.2,-27.41 c -11.16,-29.51 -18.93,-60.83 -22.77,-93.58 -12.93,-110.42 21.27,-215.48 86.71,-295.06 l -18.76,-28.6 39.58,-25.97 c -20.43,-16.97 -41.43,-33.54 -62.88,-49.62" />
    </clipPath>
    <clipPath
       id="clipPath4636"
       clipPathUnits="userSpaceOnUse">
      <path
         inkscape:connector-curvature="0"
         id="path4634"
         d="m 3925.99,5179.95 c -123.24,0 -244.8,17.09 -360.28,53.87 l 50.97,25.6 c -7.09,22.91 -11.96,46.77 -14.45,71.32 l 7.62,120.42 c 5.45,23.7 13.25,46.5 23.08,68.18 l -243.78,163.26 c -35.45,-65.05 -60.27,-136.74 -72.09,-212.85 l -7.08,-113.15 c -53.32,36.38 -99.98,77.51 -140.03,122.5 l 48.25,-3.06 c 4.04,28.26 9.81,55.93 16.86,83.09 l -62.13,21.63 c -31.48,10.98 -48.1,45.36 -37.17,76.82 8.68,24.9 32.04,40.51 57.02,40.51 6.58,0 13.27,-1.08 19.84,-3.37 l 61.88,-21.55 c 9.75,22.13 20.43,43.72 32.18,64.66 l -54.4,36.44 c -27.69,18.53 -35.08,56.02 -16.57,83.7 11.64,17.38 30.73,26.76 50.19,26.76 11.54,0 23.21,-3.3 33.52,-10.2 l 54.62,-36.58 c 15.55,19.57 32.16,38.24 49.51,56.17 l -43.61,49.5 c -22.01,24.99 -19.58,63.12 5.4,85.14 11.47,10.11 25.69,15.07 39.85,15.07 16.73,0 33.38,-6.92 45.3,-20.45 l 43.62,-49.52 c 22.28,16.7 45.51,32.18 69.59,46.39 l -28.74,59.29 c -14.6,29.97 -2.06,66.07 27.91,80.62 8.48,4.12 17.46,6.07 26.3,6.07 22.38,0 43.88,-12.52 54.32,-34.01 l 28.75,-59.27 c 20.51,8.02 41.35,15.26 62.67,21.47 l -13.36,64.39 c -6.77,32.63 14.21,64.56 46.79,71.33 4.14,0.86 8.28,1.27 12.35,1.27 28,0 53.09,-19.6 59.01,-48.08 l 13.36,-64.4 c 29.54,3.66 59.57,5.69 90.05,5.85 l 4.89,65.62 c 2.36,31.71 28.82,55.85 60.11,55.85 1.5,0 3.02,-0.05 4.54,-0.16 33.23,-2.48 58.17,-31.42 55.69,-64.66 l -4.87,-65.46 c 25.06,-3.85 49.61,-9.12 73.78,-15.38 l 21.54,62.16 c 8.6,24.96 31.99,40.6 56.98,40.6 6.55,0 13.21,-1.07 19.74,-3.34 31.5,-10.9 48.17,-45.26 37.28,-76.76 l -21.53,-62.17 c 25.53,-11.22 50.29,-23.77 74.23,-37.63 l 37.36,54.23 c 11.72,16.99 30.58,26.12 49.76,26.12 11.79,0 23.7,-3.45 34.15,-10.65 27.43,-18.9 34.37,-56.46 15.46,-83.92 l -37.4,-54.32 c 17.22,-14.04 33.82,-28.8 49.75,-44.29 l 49.61,43.49 c 11.44,10.05 25.62,14.97 39.74,14.97 7.71,0 15.41,-1.47 22.63,-4.38 8.49,-3.41 16.32,-8.82 22.76,-16.16 15.12,-17.22 18.66,-40.6 11.27,-60.67 -3.36,-9.15 -8.99,-17.6 -16.82,-24.48 l -49.58,-43.46 c 14.28,-19.15 27.85,-38.87 40.27,-59.34 l 58.67,29.46 c 8.69,4.37 17.93,6.43 27.04,6.43 22.09,0 43.37,-12.17 53.97,-33.26 6.43,-12.79 7.87,-26.78 5.07,-39.76 -3.73,-17.24 -14.95,-32.7 -31.93,-41.24 l -58.45,-29.36 c 9.05,-22.28 16.97,-45.13 23.84,-68.42 1.99,-6.73 3.88,-13.49 5.69,-20.29 l 64.57,11.92 c 3.7,0.68 7.38,1.01 11.01,1.01 28.54,0 53.88,-20.33 59.27,-49.41 6.05,-32.75 -15.61,-64.23 -48.41,-70.26 l -64.76,-11.94 c 1.43,-14.12 2.53,-28.34 3.21,-42.66 -13.86,-7.94 -27.96,-15.76 -42.07,-23.34 l -0.98,3.58 c -6.05,22.1 -26.09,36.61 -47.93,36.61 -2.94,0 -5.9,-0.26 -8.88,-0.8 -5.06,66.35 -20,129.97 -43.33,189.41 l -262.14,-131.66 c 7.1,-22.9 11.98,-46.76 14.45,-71.32 l -7.61,-120.42 c -4.23,-18.35 -9.85,-36.16 -16.74,-53.32 -125.97,-33.44 -254.9,-51.6 -382.02,-51.6 m 41.3,352.17 c -89.77,0 -163.06,-72.26 -164.06,-162.25 -1.04,-90.63 71.62,-164.91 162.23,-165.93 0.63,-0.01 1.26,-0.01 1.89,-0.01 89.77,0 163.01,72.25 164.03,162.25 1.02,90.61 -71.59,164.91 -162.21,165.93 -0.63,0 -1.25,0.01 -1.88,0.01 m 108.83,485.07 -21.78,-292.66 c 85.47,-20.78 159.14,-71.35 209.41,-140.09 l 262.04,131.61 c -97.87,156.72 -259.8,269.55 -449.67,301.14 m -120.37,8.7 c -201.21,-3.46 -380.76,-97.3 -499.31,-243.13 l 243.67,-163.18 c 59.86,63.54 142.07,105.72 233.89,113.98 l 21.75,292.33" />
    </clipPath>
    <linearGradient
       id="linearGradient4644"
       spreadMethod="pad"
       gradientTransform="matrix(1033.21,-3357.92,-3357.92,-1033.21,3810.74,7399.89)"
       gradientUnits="userSpaceOnUse"
       y2="0"
       x2="1"
       y1="0"
       x1="0">
      <stop
         id="stop4638"
         offset="0"
         style="stop-opacity:1;stop-color:#ffffff" />
      <stop
         id="stop4640"
         offset="0.542857"
         style="stop-opacity:1;stop-color:#ffffff" />
      <stop
         id="stop4642"
         offset="1"
         style="stop-opacity:1;stop-color:#ffffff" />
    </linearGradient>
    <clipPath
       id="clipPath4654"
       clipPathUnits="userSpaceOnUse">
      <path
         inkscape:connector-curvature="0"
         id="path4652"
         d="m 3967.32,5286.85 c -0.31,0 -0.62,0 -0.93,0 -44.83,0.51 -80.75,37.26 -80.26,82.08 0.5,44.51 36.76,80.25 81.15,80.25 0.32,0 0.64,0 0.95,0 44.82,-0.5 80.74,-37.25 80.25,-82.08 -0.52,-44.51 -36.75,-80.26 -81.16,-80.25" />
    </clipPath>
    <clipPath
       id="clipPath4672"
       clipPathUnits="userSpaceOnUse">
      <path
         inkscape:connector-curvature="0"
         id="path4670"
         d="m 5182.43,5795.44 c -25.41,20.47 -39.95,53.23 -35.6,87.99 6.17,49.26 48.13,85.29 96.51,85.29 4.04,0 8.12,-0.25 12.23,-0.76 11.45,-1.43 22.17,-4.79 31.91,-9.72 -29.67,-56.11 -64.96,-110.56 -105.05,-162.8" />
    </clipPath>
    <clipPath
       id="clipPath4690"
       clipPathUnits="userSpaceOnUse">
      <path
         inkscape:connector-curvature="0"
         id="path4688"
         d="m 4355.9,5245.03 c -4.08,18.19 2.3,37.94 18,50.14 9.07,7.05 19.81,10.47 30.47,10.47 14.81,0 29.48,-6.6 39.28,-19.2 l 7.68,-9.88 c -31.54,-11.46 -63.34,-21.97 -95.43,-31.53 m 234.62,89.08 -6.21,22.71 c -7.27,26.49 8.32,53.82 34.81,61.07 1.42,0.39 2.84,0.71 4.26,0.97 2.98,0.54 5.94,0.8 8.88,0.8 21.84,0 41.88,-14.51 47.93,-36.61 l 0.98,-3.58 c -29.73,-15.97 -59.95,-31.09 -90.65,-45.36" />
    </clipPath>
    <linearGradient
       id="linearGradient4698"
       spreadMethod="pad"
       gradientTransform="matrix(1033.21,-3357.92,-3357.92,-1033.21,3810.74,7399.89)"
       gradientUnits="userSpaceOnUse"
       y2="0"
       x2="1"
       y1="0"
       x1="0">
      <stop
         id="stop4692"
         offset="0"
         style="stop-opacity:1;stop-color:#afafb3" />
      <stop
         id="stop4694"
         offset="0.542857"
         style="stop-opacity:1;stop-color:#5e6268" />
      <stop
         id="stop4696"
         offset="1"
         style="stop-opacity:1;stop-color:#5e6268" />
    </linearGradient>
    <clipPath
       id="clipPath4708"
       clipPathUnits="userSpaceOnUse">
      <path
         inkscape:connector-curvature="0"
         id="path4706"
         d="m 5029.14,5898.01 -47.28,34.84 -105.51,77.76 -37.2,27.41 118.66,161 34.87,-25.69 104.18,-76.78 50.94,-37.54 -118.66,-161" />
    </clipPath>
    <clipPath
       id="clipPath4726"
       clipPathUnits="userSpaceOnUse">
      <path
         inkscape:connector-curvature="0"
         id="path4724"
         d="m 5327.08,6042.19 -47.9,32.65 37.56,55.08 64.49,94.59 c -11.13,-61.99 -29.47,-122.93 -54.15,-182.32" />
    </clipPath>
    <clipPath
       id="clipPath4744"
       clipPathUnits="userSpaceOnUse">
      <path
         inkscape:connector-curvature="0"
         id="path4742"
         d="m 4961.11,5567.4 -39.58,25.97 18.76,28.6 72.82,110.97 48.42,73.77 85.09,-55.84 C 5091.78,5685.59 5029.4,5624.1 4961.11,5567.4" />
    </clipPath>
    <clipPath
       id="clipPath4762"
       clipPathUnits="userSpaceOnUse">
      <path
         inkscape:connector-curvature="0"
         id="path4760"
         d="m 5218.36,2763.09 c -1.07,56.71 -2.5,107.89 -4.23,114.73 -6.26,-10.59 -25.39,-22.18 -54.85,-33.91 39.37,24.27 65.29,52.47 77.3,84.49 50.35,134.31 63.63,184.17 75.33,404.43 9.39,176.77 18.27,343.71 44.26,461.98 36.47,165.97 353.64,448.95 485.35,607.13 l -2.35,-0.36 c 271.51,314.8 435.71,724.81 435.71,1173.13 0,992.49 -804.57,1797.07 -1797.06,1797.07 -992.49,0 -1797.06,-804.58 -1797.06,-1797.07 0,-448.81 164.54,-859.21 436.58,-1174.15 132.39,-158.43 447.84,-440.25 484.21,-605.75 25.99,-118.27 34.87,-285.21 44.25,-461.98 11.71,-220.26 24.98,-270.12 75.33,-404.43 11.95,-31.84 37.66,-59.91 76.66,-84.09 -30.09,11.59 -49.6,23.03 -55.79,33.51 -1.72,-6.8 -3.15,-57.4 -4.22,-113.71 -1.59,1.03 -3.17,2.08 -4.75,3.13 -21.53,14.48 -41.29,30.94 -58.59,50.11 -19.73,21.84 -36.17,47.48 -46.84,75.99 -14.37,38.35 -26.37,71.43 -36.56,105.14 -10.19,33.64 -18.31,67.69 -24.54,105.44 -4.18,25.18 -7.56,52 -10.48,82 -3.9,40.01 -6.99,85.75 -9.96,141.62 -4.69,88.36 -9.23,173.43 -15.69,249.81 -6.41,76.3 -14.92,144.11 -26.38,196.02 -2.07,9.98 -8.82,28.07 -20.81,49.79 -11.91,21.79 -28.68,47.34 -48.92,74.63 -40.48,54.73 -94.58,116.35 -151.02,177.26 -37.65,40.66 -76.38,81.13 -113.17,119.82 -49.11,51.7 -94.54,99.86 -130.64,143.16 l -0.1,0.12 c -13.37,15.54 -26.5,31.31 -39.38,47.29 l -116.72,140.17 14.96,-1.49 c -78.39,117.63 -144.02,244.55 -194.87,378.78 -79.15,208.9 -122.46,435.52 -122.45,671.81 -0.04,392.53 119.5,758.04 324.03,1060.67 204.51,302.7 493.96,543.1 834.51,687.16 226.97,96.03 476.69,149.12 738.29,149.12 0.03,0 0.09,0 0.12,0 0.07,0 0.13,0 0.2,0 392.44,0 757.89,-119.54 1060.47,-324.03 302.7,-204.52 543.09,-493.96 687.15,-834.51 96.03,-227 149.13,-476.77 149.12,-738.41 v 0 0 0 c 0.01,-236.38 -43.33,-463.09 -122.54,-672.05 -48.91,-129.05 -111.49,-251.36 -185.94,-365.15 l 20.76,3.19 -168.76,-202.67 c -23.72,-28.47 -51.37,-58.87 -81.53,-91.15 -30.13,-32.25 -62.73,-66.27 -95.88,-101.19 -66.25,-69.73 -134.85,-143.35 -188.54,-210.48 -35.78,-44.57 -64.78,-86.56 -81.59,-119.16 -9.67,-18.5 -15.16,-33.82 -17.02,-42.67 -11.46,-51.92 -19.97,-119.73 -26.38,-196.03 -6.46,-76.38 -11,-161.45 -15.68,-249.82 -4.47,-83.77 -9.17,-144.86 -16.52,-197.83 -7.3,-52.82 -17.74,-97.61 -31.93,-142.44 -9.44,-29.93 -20.32,-59.82 -33.11,-93.93 -12,-32.09 -31.29,-60.45 -54.39,-84.03 -17.2,-17.56 -36.44,-32.75 -57.35,-46.21" />
    </clipPath>
    <radialGradient
       id="radialGradient4770"
       spreadMethod="pad"
       gradientTransform="matrix(7870.04,0,0,-7870.04,4494.98,3267.07)"
       gradientUnits="userSpaceOnUse"
       r="1"
       cy="0"
       cx="0"
       fy="0"
       fx="0">
      <stop
         id="stop4764"
         offset="0"
         style="stop-opacity:1;stop-color:#f1a150" />
      <stop
         id="stop4766"
         offset="0.848866"
         style="stop-opacity:1;stop-color:#c84c65" />
      <stop
         id="stop4768"
         offset="1"
         style="stop-opacity:1;stop-color:#c74c63" />
    </radialGradient>
    <clipPath
       id="clipPath4636-8"
       clipPathUnits="userSpaceOnUse">
      <path
         inkscape:connector-curvature="0"
         id="path4634-2"
         d="m 3925.99,5179.95 c -123.24,0 -244.8,17.09 -360.28,53.87 l 50.97,25.6 c -7.09,22.91 -11.96,46.77 -14.45,71.32 l 7.62,120.42 c 5.45,23.7 13.25,46.5 23.08,68.18 l -243.78,163.26 c -35.45,-65.05 -60.27,-136.74 -72.09,-212.85 l -7.08,-113.15 c -53.32,36.38 -99.98,77.51 -140.03,122.5 l 48.25,-3.06 c 4.04,28.26 9.81,55.93 16.86,83.09 l -62.13,21.63 c -31.48,10.98 -48.1,45.36 -37.17,76.82 8.68,24.9 32.04,40.51 57.02,40.51 6.58,0 13.27,-1.08 19.84,-3.37 l 61.88,-21.55 c 9.75,22.13 20.43,43.72 32.18,64.66 l -54.4,36.44 c -27.69,18.53 -35.08,56.02 -16.57,83.7 11.64,17.38 30.73,26.76 50.19,26.76 11.54,0 23.21,-3.3 33.52,-10.2 l 54.62,-36.58 c 15.55,19.57 32.16,38.24 49.51,56.17 l -43.61,49.5 c -22.01,24.99 -19.58,63.12 5.4,85.14 11.47,10.11 25.69,15.07 39.85,15.07 16.73,0 33.38,-6.92 45.3,-20.45 l 43.62,-49.52 c 22.28,16.7 45.51,32.18 69.59,46.39 l -28.74,59.29 c -14.6,29.97 -2.06,66.07 27.91,80.62 8.48,4.12 17.46,6.07 26.3,6.07 22.38,0 43.88,-12.52 54.32,-34.01 l 28.75,-59.27 c 20.51,8.02 41.35,15.26 62.67,21.47 l -13.36,64.39 c -6.77,32.63 14.21,64.56 46.79,71.33 4.14,0.86 8.28,1.27 12.35,1.27 28,0 53.09,-19.6 59.01,-48.08 l 13.36,-64.4 c 29.54,3.66 59.57,5.69 90.05,5.85 l 4.89,65.62 c 2.36,31.71 28.82,55.85 60.11,55.85 1.5,0 3.02,-0.05 4.54,-0.16 33.23,-2.48 58.17,-31.42 55.69,-64.66 l -4.87,-65.46 c 25.06,-3.85 49.61,-9.12 73.78,-15.38 l 21.54,62.16 c 8.6,24.96 31.99,40.6 56.98,40.6 6.55,0 13.21,-1.07 19.74,-3.34 31.5,-10.9 48.17,-45.26 37.28,-76.76 l -21.53,-62.17 c 25.53,-11.22 50.29,-23.77 74.23,-37.63 l 37.36,54.23 c 11.72,16.99 30.58,26.12 49.76,26.12 11.79,0 23.7,-3.45 34.15,-10.65 27.43,-18.9 34.37,-56.46 15.46,-83.92 l -37.4,-54.32 c 17.22,-14.04 33.82,-28.8 49.75,-44.29 l 49.61,43.49 c 11.44,10.05 25.62,14.97 39.74,14.97 7.71,0 15.41,-1.47 22.63,-4.38 8.49,-3.41 16.32,-8.82 22.76,-16.16 15.12,-17.22 18.66,-40.6 11.27,-60.67 -3.36,-9.15 -8.99,-17.6 -16.82,-24.48 l -49.58,-43.46 c 14.28,-19.15 27.85,-38.87 40.27,-59.34 l 58.67,29.46 c 8.69,4.37 17.93,6.43 27.04,6.43 22.09,0 43.37,-12.17 53.97,-33.26 6.43,-12.79 7.87,-26.78 5.07,-39.76 -3.73,-17.24 -14.95,-32.7 -31.93,-41.24 l -58.45,-29.36 c 9.05,-22.28 16.97,-45.13 23.84,-68.42 1.99,-6.73 3.88,-13.49 5.69,-20.29 l 64.57,11.92 c 3.7,0.68 7.38,1.01 11.01,1.01 28.54,0 53.88,-20.33 59.27,-49.41 6.05,-32.75 -15.61,-64.23 -48.41,-70.26 l -64.76,-11.94 c 1.43,-14.12 2.53,-28.34 3.21,-42.66 -13.86,-7.94 -27.96,-15.76 -42.07,-23.34 l -0.98,3.58 c -6.05,22.1 -26.09,36.61 -47.93,36.61 -2.94,0 -5.9,-0.26 -8.88,-0.8 -5.06,66.35 -20,129.97 -43.33,189.41 l -262.14,-131.66 c 7.1,-22.9 11.98,-46.76 14.45,-71.32 l -7.61,-120.42 c -4.23,-18.35 -9.85,-36.16 -16.74,-53.32 -125.97,-33.44 -254.9,-51.6 -382.02,-51.6 m 41.3,352.17 c -89.77,0 -163.06,-72.26 -164.06,-162.25 -1.04,-90.63 71.62,-164.91 162.23,-165.93 0.63,-0.01 1.26,-0.01 1.89,-0.01 89.77,0 163.01,72.25 164.03,162.25 1.02,90.61 -71.59,164.91 -162.21,165.93 -0.63,0 -1.25,0.01 -1.88,0.01 m 108.83,485.07 -21.78,-292.66 c 85.47,-20.78 159.14,-71.35 209.41,-140.09 l 262.04,131.61 c -97.87,156.72 -259.8,269.55 -449.67,301.14 m -120.37,8.7 c -201.21,-3.46 -380.76,-97.3 -499.31,-243.13 l 243.67,-163.18 c 59.86,63.54 142.07,105.72 233.89,113.98 l 21.75,292.33" />
    </clipPath>
    <clipPath
       id="clipPath4654-0"
       clipPathUnits="userSpaceOnUse">
      <path
         inkscape:connector-curvature="0"
         id="path4652-0"
         d="m 3967.32,5286.85 c -0.31,0 -0.62,0 -0.93,0 -44.83,0.51 -80.75,37.26 -80.26,82.08 0.5,44.51 36.76,80.25 81.15,80.25 0.32,0 0.64,0 0.95,0 44.82,-0.5 80.74,-37.25 80.25,-82.08 -0.52,-44.51 -36.75,-80.26 -81.16,-80.25" />
    </clipPath>
    <clipPath
       id="clipPath4600-5"
       clipPathUnits="userSpaceOnUse">
      <path
         inkscape:connector-curvature="0"
         id="path4598-9"
         d="m 5013.11,5732.94 c -29.6,49.2 -43.73,108.23 -36.54,169.66 1.21,10.3 2.98,20.4 5.29,30.25 l 47.28,-34.84 118.66,161 -50.94,37.54 c 42.46,27.68 92.92,43.54 146.26,43.54 10.44,0 20.99,-0.61 31.61,-1.85 14.43,-1.69 28.45,-4.49 42.01,-8.32 l -37.56,-55.08 47.9,-32.65 c -11.8,-28.39 -25,-56.32 -39.6,-83.95 -9.74,4.93 -20.46,8.29 -31.91,9.72 -4.11,0.51 -8.19,0.76 -12.23,0.76 -48.38,0 -90.34,-36.03 -96.51,-85.29 -4.35,-34.76 10.19,-67.52 35.6,-87.99 -11.55,-15.05 -23.47,-29.89 -35.81,-44.57 l -85.09,55.84 -48.42,-73.77" />
    </clipPath>
    <clipPath
       id="clipPath4618-0"
       clipPathUnits="userSpaceOnUse">
      <path
         inkscape:connector-curvature="0"
         id="path4616-1"
         d="m 4898.23,5517.78 c -33.36,32.62 -61.99,69.83 -85.02,110.47 l -92.99,-39.78 c -6.97,-2.98 -14.23,-4.39 -21.36,-4.39 -2.08,0 -4.15,0.12 -6.2,0.36 -6.87,23.29 -14.79,46.14 -23.84,68.42 l 58.45,29.36 c 16.98,8.54 28.2,24 31.93,41.24 l 11.18,4.78 c -14.08,46.52 -21.46,95.68 -21.07,146.24 l -100.46,11.77 c -2.84,0.33 -5.6,0.88 -8.27,1.62 7.39,20.07 3.85,43.45 -11.27,60.67 -6.44,7.34 -14.27,12.75 -22.76,16.16 9.07,18.03 27.72,29.97 48.55,29.97 2.12,0 4.25,-0.12 6.4,-0.37 l 100.47,-11.77 c 11.32,49.27 29.86,95.39 54.33,137.41 l -81.26,60.14 c -24.13,17.88 -29.22,51.95 -11.34,76.09 10.68,14.4 27.11,22.02 43.76,22.02 11.24,0 22.59,-3.48 32.33,-10.68 l 81.31,-60.19 c 34.69,37.33 74.9,69.14 119.27,94.24 l -39.76,93.03 c -11.82,27.61 0.98,59.59 28.61,71.4 6.97,2.98 14.22,4.39 21.35,4.39 21.13,0 41.23,-12.38 50.06,-33.03 l 39.73,-92.93 c 45.38,13.75 93.27,21.11 142.5,21.11 1.25,0 2.51,-0.01 3.77,-0.02 l 11.75,100.46 c 3.26,27.67 26.77,48.07 53.95,48.07 2.11,0 4.25,-0.13 6.4,-0.38 29.82,-3.5 51.22,-30.52 47.71,-60.36 l -11.76,-100.45 c 13.16,-3.02 26.1,-6.56 38.79,-10.59 -0.98,-34.98 -4.32,-69.65 -9.91,-104.11 -29.73,11.33 -61.34,19.2 -94.38,23.07 -15.52,1.82 -30.93,2.71 -46.19,2.71 -93.92,0 -181.7,-33.64 -250.31,-90.6 l -34.87,25.69 -118.66,-161 37.2,-27.41 c -11.16,-29.51 -18.93,-60.83 -22.77,-93.58 -12.93,-110.42 21.27,-215.48 86.71,-295.06 l -18.76,-28.6 39.58,-25.97 c -20.43,-16.97 -41.43,-33.54 -62.88,-49.62" />
    </clipPath>
    <clipPath
       id="clipPath4672-3"
       clipPathUnits="userSpaceOnUse">
      <path
         inkscape:connector-curvature="0"
         id="path4670-7"
         d="m 5182.43,5795.44 c -25.41,20.47 -39.95,53.23 -35.6,87.99 6.17,49.26 48.13,85.29 96.51,85.29 4.04,0 8.12,-0.25 12.23,-0.76 11.45,-1.43 22.17,-4.79 31.91,-9.72 -29.67,-56.11 -64.96,-110.56 -105.05,-162.8" />
    </clipPath>
    <clipPath
       id="clipPath4708-5"
       clipPathUnits="userSpaceOnUse">
      <path
         inkscape:connector-curvature="0"
         id="path4706-5"
         d="m 5029.14,5898.01 -47.28,34.84 -105.51,77.76 -37.2,27.41 118.66,161 34.87,-25.69 104.18,-76.78 50.94,-37.54 -118.66,-161" />
    </clipPath>
    <clipPath
       id="clipPath4726-1"
       clipPathUnits="userSpaceOnUse">
      <path
         inkscape:connector-curvature="0"
         id="path4724-1"
         d="m 5327.08,6042.19 -47.9,32.65 37.56,55.08 64.49,94.59 c -11.13,-61.99 -29.47,-122.93 -54.15,-182.32" />
    </clipPath>
    <clipPath
       id="clipPath4744-1"
       clipPathUnits="userSpaceOnUse">
      <path
         inkscape:connector-curvature="0"
         id="path4742-0"
         d="m 4961.11,5567.4 -39.58,25.97 18.76,28.6 72.82,110.97 48.42,73.77 85.09,-55.84 C 5091.78,5685.59 5029.4,5624.1 4961.11,5567.4" />
    </clipPath>
    <clipPath
       id="clipPath4564-2"
       clipPathUnits="userSpaceOnUse">
      <path
         inkscape:connector-curvature="0"
         id="path4562-6"
         d="m 4473.29,6441.94 c -4.62,0 -9.31,0.71 -13.94,2.22 -23.68,7.7 -36.64,33.14 -28.93,56.82 6.17,19.06 23.82,31.17 42.82,31.17 4.63,0 9.33,-0.71 13.96,-2.22 23.69,-7.67 36.67,-33.12 28.98,-56.82 -6.21,-19.05 -23.89,-31.17 -42.89,-31.17" />
    </clipPath>
    <clipPath
       id="clipPath4582-3"
       clipPathUnits="userSpaceOnUse">
      <path
         inkscape:connector-curvature="0"
         id="path4580-1"
         d="m 4359.19,6103.23 c -3.33,0 -6.72,0.51 -10.06,1.6 -17.14,5.56 -26.46,23.92 -20.94,41.03 l 22.88,70.37 c -52.89,23.79 -95.89,61.74 -126.07,107.76 l -65.97,-33.62 c -4.75,-2.42 -9.8,-3.56 -14.79,-3.56 -11.85,0 -23.28,6.49 -29.02,17.78 -8.18,16.01 -1.81,35.63 14.23,43.79 l 65.97,33.63 c -19.46,51.47 -24.91,108.56 -13.09,165.34 l -70.36,22.87 c -17.13,5.54 -26.49,23.93 -20.89,41.02 4.45,13.77 17.22,22.51 30.95,22.51 3.33,0 6.71,-0.51 10.05,-1.59 l 70.36,-22.88 c 23.82,52.87 61.76,95.89 107.77,126.07 l -33.58,65.99 c -8.21,16.03 -1.86,35.63 14.21,43.78 4.75,2.42 9.8,3.57 14.78,3.57 11.84,0 23.24,-6.5 29.02,-17.79 l 33.61,-66.01 c 33.24,12.59 68.82,19.32 105.16,19.32 19.93,0 40.08,-2.02 60.19,-6.21 l 22.86,70.36 c 4.46,13.76 17.23,22.52 30.96,22.52 3.33,0 6.73,-0.52 10.07,-1.61 17.1,-5.55 26.46,-23.91 20.89,-41.02 l -22.87,-70.38 c 52.89,-23.78 95.91,-61.74 126.09,-107.76 l 66.01,33.62 c 4.73,2.41 9.78,3.56 14.75,3.56 11.85,0 23.26,-6.5 29,-17.77 8.18,-16.03 1.81,-35.65 -14.22,-43.8 l -65.98,-33.64 c 19.5,-51.46 24.9,-108.55 13.1,-165.33 l 70.35,-22.87 c 17.1,-5.54 26.48,-23.92 20.88,-41.02 -4.43,-13.75 -17.21,-22.5 -30.94,-22.5 -3.34,0 -6.73,0.51 -10.07,1.6 l -70.36,22.87 c -23.81,-52.9 -61.74,-95.89 -107.76,-126.07 l 33.61,-65.99 c 8.18,-16.04 1.85,-35.64 -14.2,-43.81 -4.75,-2.41 -9.8,-3.56 -14.77,-3.56 -11.86,0 -23.28,6.51 -29.07,17.8 l -33.62,66.01 c -33.24,-12.6 -68.8,-19.33 -105.12,-19.33 -19.92,0 -40.07,2.02 -60.19,6.21 l -22.85,-70.36 c -4.47,-13.76 -17.23,-22.5 -30.96,-22.5 m 52.59,241.46 c -17.82,0 -34.43,-11.28 -40.34,-29.14 -7.44,-22.29 4.62,-46.38 26.94,-53.81 4.45,-1.48 8.98,-2.18 13.42,-2.18 17.83,0 34.44,11.29 40.38,29.14 7.4,22.31 -4.65,46.4 -26.97,53.81 -4.45,1.48 -8.98,2.18 -13.43,2.18 m 148.73,10.7 c -6.4,0 -12.9,-1.45 -19.02,-4.51 -21,-10.53 -29.49,-36.1 -18.96,-57.13 7.46,-14.9 22.48,-23.5 38.08,-23.5 6.41,0 12.91,1.45 19.02,4.51 21,10.53 29.51,36.1 18.98,57.11 -7.47,14.91 -22.49,23.52 -38.1,23.52 m -261.5,86.95 c -6.41,0 -12.92,-1.46 -19.04,-4.52 -21,-10.53 -29.5,-36.1 -18.96,-57.11 7.44,-14.9 22.46,-23.5 38.07,-23.5 6.41,0 12.92,1.45 19.04,4.51 21.02,10.53 29.5,36.09 18.95,57.12 -7.44,14.89 -22.46,23.5 -38.06,23.5 m 359.18,25.8 c -17.84,0 -34.45,-11.29 -40.36,-29.14 -7.42,-22.31 4.65,-46.4 26.93,-53.81 4.46,-1.48 8.99,-2.19 13.45,-2.19 17.83,0 34.44,11.29 40.38,29.14 7.43,22.3 -4.65,46.39 -26.95,53.81 -4.46,1.48 -9,2.19 -13.45,2.19 m -184.9,110.29 c -38.51,0 -74.32,-24.55 -86.87,-63.15 -15.57,-48 10.67,-99.53 58.66,-115.12 9.38,-3.04 18.88,-4.49 28.24,-4.49 38.5,0 74.32,24.54 86.86,63.16 15.6,47.98 -10.64,99.5 -58.64,115.11 -9.38,3.05 -18.89,4.49 -28.25,4.49 m -184.93,12.68 c -17.83,0 -34.44,-11.29 -40.39,-29.14 -7.42,-22.29 4.65,-46.39 26.96,-53.81 4.46,-1.48 8.98,-2.18 13.43,-2.18 17.83,0 34.44,11.29 40.37,29.14 7.43,22.3 -4.66,46.39 -26.93,53.8 -4.46,1.48 -8.99,2.19 -13.44,2.19 m 359.14,25.79 c -6.41,0 -12.92,-1.45 -19.03,-4.52 -21.03,-10.53 -29.53,-36.08 -19,-57.1 7.47,-14.9 22.49,-23.5 38.08,-23.5 6.4,0 12.91,1.45 19.02,4.52 21.01,10.53 29.52,36.08 19,57.1 -7.45,14.89 -22.47,23.5 -38.07,23.5 m -261.53,86.96 c -6.41,0 -12.91,-1.45 -19.04,-4.52 -21,-10.52 -29.51,-36.09 -18.98,-57.1 7.46,-14.9 22.49,-23.51 38.1,-23.51 6.4,0 12.91,1.45 19.02,4.51 21,10.53 29.49,36.11 18.96,57.11 -7.46,14.9 -22.47,23.51 -38.06,23.51 m 148.78,10.69 c -17.82,0 -34.43,-11.3 -40.36,-29.14 -7.4,-22.3 4.65,-46.4 26.95,-53.82 4.45,-1.48 8.98,-2.18 13.43,-2.18 17.83,0 34.45,11.29 40.37,29.15 7.42,22.3 -4.63,46.39 -26.95,53.8 -4.46,1.49 -8.99,2.19 -13.44,2.19" />
    </clipPath>
    <inkscape:path-effect
       effect="bspline"
       id="path-effect3907-6"
       is_visible="true"
       weight="33.333333"
       steps="2"
       helper_size="0"
       apply_no_weight="true"
       apply_with_weight="true"
       only_selected="false" />
    <inkscape:path-effect
       effect="skeletal"
       id="path-effect3909-3"
       is_visible="true"
       pattern="m -21.377201,17.047749 c 0,-2.76 2.24,-5 5,-5 2.76,0 5,2.24 5,5 0,2.76 -2.24,5 -5,5 -2.76,0 -5,-2.24 -5,-5 z"
       copytype="single_stretched"
       prop_scale="2.9954605"
       scale_y_rel="false"
       spacing="0"
       normal_offset="0"
       tang_offset="0"
       prop_units="false"
       vertical_pattern="false"
       fuse_tolerance="0" />
  </defs>
  <sodipodi:namedview
     id="base"
     pagecolor="#ffffff"
     bordercolor="#666666"
     borderopacity="1.0"
     inkscape:pageopacity="0.0"
     inkscape:pageshadow="2"
     inkscape:zoom="0.22627417"
     inkscape:cx="1290.667"
     inkscape:cy="546.73759"
     inkscape:document-units="px"
     inkscape:current-layer="layer3"
     showgrid="true"
     units="px"
     inkscape:pagecheckerboard="true"
     borderlayer="false"
     objecttolerance="10"
     inkscape:window-width="1366"
     inkscape:window-height="705"
     inkscape:window-x="-8"
     inkscape:window-y="-8"
     inkscape:window-maximized="1">
    <inkscape:grid
       type="xygrid"
       id="grid7" />
  </sodipodi:namedview>
  <metadata
     id="metadata5">
    <rdf:RDF>
      <cc:Work
         rdf:about="">
        <dc:format>image/svg+xml</dc:format>
        <dc:type
           rdf:resource="http://purl.org/dc/dcmitype/StillImage" />
        <dc:title></dc:title>
        <cc:license
           rdf:resource="http://creativecommons.org/licenses/by-sa/4.0/" />
        <dc:rights>
          <cc:Agent>
            <dc:title>Nintersoft</dc:title>
          </cc:Agent>
        </dc:rights>
        <dc:creator>
          <cc:Agent>
            <dc:title>Mauro Mascarenhas de Arajo</dc:title>
          </cc:Agent>
        </dc:creator>
      </cc:Work>
      <cc:License
         rdf:about="http://creativecommons.org/licenses/by-sa/4.0/">
        <cc:permits
           rdf:resource="http://creativecommons.org/ns#Reproduction" />
        <cc:permits
           rdf:resource="http://creativecommons.org/ns#Distribution" />
        <cc:requires
           rdf:resource="http://creativecommons.org/ns#Notice" />
        <cc:requires
           rdf:resource="http://creativecommons.org/ns#Attribution" />
        <cc:permits
           rdf:resource="http://creativecommons.org/ns#DerivativeWorks" />
        <cc:requires
           rdf:resource="http://creativecommons.org/ns#ShareAlike" />
      </cc:License>
    </rdf:RDF>
  </metadata>
  <g
     inkscape:groupmode="layer"
     id="layer4"
     inkscape:label="Bin"
     style="display:inline" />
  <g
     inkscape:groupmode="layer"
     id="layer3"
     inkscape:label="Camada 3">
    <g
       id="g3987"
       transform="translate(0,0.92501072)">
      <path
         sodipodi:nodetypes="ccccc"
         inkscape:original-d="m 270.51277,132.21006 c 0.92396,25.34127 1.84771,50.68433 2.77108,76.02458 -15.03443,6.40817 -30.06935,12.81669 -45.10442,19.22543 -35.27749,-2.7e-4 -70.20426,-2.7e-4 -105.83344,0 -12.46983,-7.12603 -24.694213,-14.11139 -37.041688,-21.16667"
         inkscape:path-effect="#path-effect3907;#path-effect3909"
         inkscape:connector-curvature="0"
         id="path3905"
         d="m 270.51277,132.21006 c 0.961,-0.035 4.52257,13.81422 4.51951,37.02202 0,0 0,0 0,0 0.0496,8.62655 -0.39795,20.40056 -4.97967,31.64675 -1.73961,4.18256 -4.25241,8.29193 -7.6418,11.92521 -3.25589,3.44469 -7.11783,6.2919 -11.35475,8.51031 -10.07043,5.21604 -21.00713,7.44521 -32.24914,8.81911 -2.15213,0.27816 -4.31832,0.52865 -6.49903,0.75241 -12.72897,1.30609 -25.1527,1.61776 -36.74816,1.42767 -15.75546,-0.24391 -29.54026,-1.39181 -42.32993,-3.7198 -11.89929,-2.15722 -21.50574,-5.38233 -29.24927,-9.10532 -13.15245,-6.35527 -19.021811,-12.59026 -18.676233,-13.19502 0.611298,-1.06978 8.194434,2.82876 21.168333,7.02835 7.71769,2.51937 16.72142,4.58291 28.14872,5.87893 12.44402,1.40643 25.47052,1.86527 40.97271,1.71413 11.30079,-0.12094 23.33497,-0.57938 35.50244,-1.82912 2.08766,-0.21442 4.15827,-0.44992 6.21307,-0.70762 10.84274,-1.43924 20.40025,-3.03895 28.57316,-7.16552 3.32871,-1.65609 6.28967,-3.64805 8.67383,-6.02184 2.507,-2.4498 4.49958,-5.42346 6.00051,-8.53221 4.23906,-8.6128 5.37668,-19.51473 6.21254,-27.8116 0,0 0,0 0,0 2.13408,-22.41743 1.48492,-36.55453 3.74316,-36.63684 z"
         style="fill:#000055;stroke:none;stroke-width:0.28840604px;stroke-linecap:butt;stroke-linejoin:miter;stroke-opacity:1" />
      <path
         sodipodi:nodetypes="ccccc"
         inkscape:original-d="m 270.79542,36.876457 c 0.92396,25.341269 1.84771,50.68433 2.77108,76.024593 -15.03443,6.40817 -30.06935,12.81669 -45.10442,19.22543 -35.27749,-2.6e-4 -70.20426,-2.6e-4 -105.83344,0 -12.46983,-7.12603 -24.694215,-14.11139 -37.041686,-21.16667"
         inkscape:path-effect="#path-effect3957;#path-effect3959"
         inkscape:connector-curvature="0"
         id="path3905-2"
         d="m 270.79542,36.876457 c 0.73907,-0.02694 4.0961,13.842361 3.94657,36.995308 0,3e-6 0,5e-6 0,8e-6 -0.0121,8.602928 -0.50686,20.317985 -5.06516,31.380817 -1.72307,4.1081 -4.19978,8.13872 -7.528,11.68994 -3.19543,3.37043 -6.9949,6.15834 -11.16884,8.33776 -9.93878,5.14047 -20.78,7.32603 -31.99424,8.70445 -2.14539,0.27674 -4.30496,0.52619 -6.47921,0.7493 -12.69025,1.30221 -25.08654,1.62401 -36.66178,1.4555 -15.73596,-0.21665 -29.47205,-1.31648 -42.23582,-3.58072 -11.86507,-2.09755 -21.43271,-5.24201 -29.17296,-8.8816 -13.150423,-6.21112 -19.110582,-12.3097 -18.849032,-12.76741 0.526522,-0.92142 8.006244,3.10544 20.995522,7.45595 7.71751,2.60293 16.76698,4.74682 28.22504,6.10266 12.46538,1.47053 25.54967,1.97675 41.06682,1.8532 11.32149,-0.0994 23.38213,-0.5476 35.58882,-1.80128 2.09411,-0.21507 4.17135,-0.45161 6.2329,-0.71073 10.87033,-1.43469 20.52367,-3.07809 28.82805,-7.28018 3.39169,-1.69508 6.41513,-3.74634 8.85973,-6.1944 2.5682,-2.53186 4.59682,-5.58427 6.11432,-8.76748 4.26306,-8.794227 5.35236,-19.758988 6.12706,-28.077541 0,-2e-6 0,-4e-6 0,-7e-6 1.97322,-22.339305 1.78623,-36.613099 3.17021,-36.663545 z"
         style="fill:#d45500;stroke:none;stroke-width:0.28840604px;stroke-linecap:butt;stroke-linejoin:miter;stroke-opacity:1" />
    </g>
    <text
       xml:space="preserve"
       style="font-style:normal;font-weight:normal;font-size:95.35140991px;line-height:1.25;font-family:sans-serif;letter-spacing:0px;word-spacing:0px;fill:#000055;fill-opacity:1;stroke:none;stroke-width:2.38378525;"
       x="313.25943"
       y="93.18808"
       id="text3963"
       transform="scale(0.99191422,1.0081517)"><tspan
         sodipodi:role="line"
         id="tspan3961"
         x="313.25943"
         y="93.18808"
         style="font-style:normal;font-variant:normal;font-weight:bold;font-stretch:normal;font-family:'Segoe Print';-inkscape-font-specification:'Segoe Print Bold';stroke-width:2.38378525;fill:#000055">DB</tspan><tspan
         sodipodi:role="line"
         x="313.25943"
         y="214.94289"
         style="font-style:normal;font-variant:normal;font-weight:bold;font-stretch:normal;font-family:'Segoe Print';-inkscape-font-specification:'Segoe Print Bold';stroke-width:2.38378525;fill:#000055"
         id="tspan3965">Manager</tspan></text>
  </g>
</svg>
